<svg data-name="Sky Tg24" xmlns="http://www.w3.org/2000/svg" viewBox="0 0 456.15 120" class="icon__svg icon__svg--sky-tg24" fill="currentColor" width="80" height="80"><path d="M200.55 0H8a8 8 0 00-8 8v104a8 8 0 008 8h192.55z" fill="#fff"></path><path d="M8 120h193.81v-2.5H8a5.5 5.5 0 01-5.5-5.5V8A5.5 5.5 0 018 2.5h193.81V0H8a8 8 0 00-8 8v104a8 8 0 008 8z" fill="#999"></path><path d="M448.15 0H199.7v120h248.45a8 8 0 008-8V8a8 8 0 00-8-8z" fill="#b32224"></path><path d="M135 106.75a18.23 18.23 0 007.26 1.55c5.69.12 8.8-2.06 11.11-7.17l30.58-68.2a16.78 16.78 0 00-6.34-1.49c-3.93-.07-9.2.73-12.58 8.78l-9.9 23.37L135.7 32a27.87 27.87 0 00-6.55-.93c-6.84 0-10.68 2.53-14.66 6.84l-18.88 20.6 15.18 23.9c2.8 4.35 6.51 6.57 12.51 6.57a22.12 22.12 0 008.7-1.61L113.74 59.8l13-13.73L148 79.43zm-40.11-25.8c0 5-2 7.93-11.78 7.93a24.31 24.31 0 01-3.53-.25v-66.7c0-5.06 1.72-10.35 11.64-10.35a18.14 18.14 0 013.68.37zM74.64 70.89c0 9.37-6.13 16.22-18.57 17.58-9 1-22.07-.17-28.27-.89a15.94 15.94 0 01-.41-3.26c0-8.2 4.44-10.07 8.58-10.07 4.31 0 11.11.75 16.17.75 5.55 0 7.25-1.89 7.25-3.68 0-2.35-2.25-3.33-6.56-4.16L41 64.88C31.2 63 26 56.2 26 49c0-8.77 6.21-16.11 18.41-17.46 9.23-1 20.46.13 26.62.88a14.55 14.55 0 01.35 3.16c0 8.17-4.31 9.94-8.47 9.94-3.2 0-8.15-.6-13.8-.6s-8.15 1.59-8.15 3.53 2.27 2.89 5.88 3.52l11.28 2.09c11.59 2.14 16.56 8.72 16.56 16.82"></path><path d="M8 0h440.15a8 8 0 018 8l-.05 42.73L11.52 68.45A12 12 0 000 80.45V8a8 8 0 018-8z" opacity=".2" fill="#fff"></path><path d="M257.84 85.27a38.09 38.09 0 01-16.21 3.85c-11.08 0-17.85-6.53-17.85-17.38V22c0-2.22 1.28-3.62 5.13-3.62a13.32 13.32 0 014.31.7v13.13h22.16a29 29 0 01.35 3.85c0 3.38-1.28 4.55-3.5 4.55h-19v30.32c0 6.53 3.15 9.56 9.45 9.56 5.6 0 9-2.33 11.66-2.33s4.08 2.45 3.5 7.11M306 49.91a18.81 18.81 0 00-17.12-10.72c-10.37 0-18.52 7.45-18.52 20s8.15 19.92 18.52 19.92A19 19 0 00306 68.43zm9.55-17.7v52.88c0 14.67-10.83 24-27.72 24a53.1 53.1 0 01-22.36-5.24c-.46-4.43.93-7.22 4-7.22a13.42 13.42 0 014.54 1.16 35.69 35.69 0 0013.75 2.91c11.06 0 18.28-5.12 18.28-15.84v-6.18c-3.38 4.43-10 8.62-19.22 8.62-13.51 0-26-10.83-26-28.07 0-17.47 12.58-28.19 26.09-28.19 9 0 15.73 4.19 19.22 8.85v-4.42c0-2.21 1.28-3.73 4.89-3.73a21.7 21.7 0 014.54.47M371.56 83.24a4.57 4.57 0 01-1.27 3.63 4.28 4.28 0 01-2.91 1h-41.79l-.22-1.14c-.07-.35-.14-.79-.21-1.32a13.9 13.9 0 01-.11-1.82 9.53 9.53 0 01.51-2.9 6.82 6.82 0 011.93-3l21.9-20q2.45-2.25 4.56-4.41a36.31 36.31 0 003.58-4.24 19.49 19.49 0 002.31-4.25 12.29 12.29 0 00.8-4.4c0-3.78-1.16-6.64-3.54-8.76s-5.8-3.21-10.12-3.21a18.55 18.55 0 00-5.8.82 30.38 30.38 0 00-4.45 1.84c-1.3.68-2.42 1.3-3.36 1.85-3 1.75-5.16 1.2-6.53-.82a8.42 8.42 0 01-1.28-4l-.07-.75.59-.47a33 33 0 013.73-2.54 35.69 35.69 0 0110.63-4.13 31 31 0 016.54-.68 30 30 0 019.67 1.46 20.87 20.87 0 017.35 4.31 19.13 19.13 0 014.71 6.63 21.07 21.07 0 011.65 8.39 19 19 0 01-1.23 6.84 27.25 27.25 0 01-3.24 6 42.46 42.46 0 01-4.61 5.43c-1.72 1.72-3.49 3.39-5.27 5L339 78.86h32l.23 1.13c.07.36.14.82.22 1.39a15.12 15.12 0 01.11 1.86zm55.8-17a11.6 11.6 0 00-.17-1.48L427 63.6h-10.39V20.68h-9l-31.35 42.5a8.24 8.24 0 00-1.3 2.57 9.13 9.13 0 00-.35 2.52 13 13 0 00.11 1.72c.07.54.14 1 .21 1.34l.23 1.12h32.05v15.11l.88.35a6 6 0 001.89.35c.65 0 1.25.05 1.8.05 4.4 0 4.87-2.72 4.87-3.88V72.35h6.82a4 4 0 002.79-1.07 4.46 4.46 0 001.19-3.41c-.04-.55-.06-1.11-.09-1.67zM407.16 36v27.7h-20.58z" fill="#fff"></path></svg>